<?xml version="1.0" encoding="UTF-8"?>
<svg id="Layer_2" data-name="Layer 2" xmlns="http://www.w3.org/2000/svg" viewBox="0 0 280.29 289.68">
  <defs>
    <style>
      .cls-1, .cls-2 {
        stroke-width: 0px;
      }

      .cls-2 {
        fill: #a22135;
      }
    </style>
  </defs>
  <g id="Layer_1-2" data-name="Layer 1">
    <g>
      <path class="cls-2" d="m18.45,140.89l-4.3,2.02,4.19,2.23-1.55,2.53-3.86-2.7.16,4.73-2.96-.07.4-4.76-4.03,2.54-1.38-2.6,4.3-2.02-4.23-2.23,1.55-2.53,3.9,2.74-.16-4.77,2.96.07-.4,4.76,4.03-2.54,1.38,2.6Z"/>
      <path class="cls-2" d="m269.8,140.36l-4.3,2.02,4.19,2.23-1.55,2.53-3.86-2.7.16,4.73-2.96-.07.4-4.76-4.03,2.54-1.38-2.6,4.3-2.02-4.23-2.23,1.55-2.53,3.9,2.74-.16-4.77,2.96.07-.4,4.76,4.03-2.54,1.38,2.6Z"/>
      <g>
        <g>
          <path class="cls-2" d="m173.88,161l-4.91-4.92-7.99,7.97-1.21-4.61-6.72,1.76,2.87,10.93-4.61-1.26-1.83,6.71,10.94,2.98-3.39,3.36,4.9,4.93,8.03-7.97,1.22,4.59,6.72-1.78-2.89-10.92,4.61,1.24,1.81-6.71-10.92-2.95,3.38-3.37Zm-5.74,9.93l5.77,1.56-5.77,1.53,1.53,5.78-4.21-4.24-4.25,4.22,1.57-5.77-5.75-1.57,5.75-1.51-1.5-5.73,4.18,4.19,4.22-4.21-1.55,5.75Z"/>
          <path class="cls-2" d="m74.35,80.07l-.09,82.54.04.81c1.14,34.84,29.35,62.16,64.23,62.2,34.88.04,63.16-27.22,64.37-62.06l.05-1.25.05-42.22v-9.64s.04-30.25.04-30.25l-128.68-.14Zm118.62,82.12l-.04,1.03c-.49,14.12-6.37,27.32-16.55,37.17-10.2,9.86-23.64,15.29-37.84,15.27-9.37-.01-18.41-2.39-26.4-6.85l.03-28.12,20.72.02h9.64s.01-9.63.01-9.63l.02-20.72,20.72.02v.04s9.64.01,9.64.01v-.04s.01-9.64.01-9.64l.02-20.68,20.05.02-.05,42.09Zm-19.99-51.76h-9.64s-.01,9.63-.01,9.63l-.02,20.68-20.72-.02h-9.64s-.01,9.63-.01,9.63l-.02,20.72-20.72-.02h-9.64s-.01,9.63-.01,9.63l-.02,21.27c-.6-.53-1.19-1.08-1.77-1.64-10.16-9.87-16.01-23.08-16.47-37.2l-.03-1.12.08-71.93,108.74.12-.02,20.28-20.06-.02Z"/>
          <polygon class="cls-2" points="92.95 131.02 92.94 140.66 113.66 140.68 113.63 161.4 123.27 161.41 123.3 140.69 123.31 131.05 113.67 131.04 92.95 131.02"/>
          <path class="cls-2" d="m123.32,117.07c0-3.7-2.99-6.7-6.69-6.7l-23.67-.03v9.64s30.35.03,30.35.03l30.36.03v-9.64s-23.65-.03-23.65-.03c-3.7,0-6.7,2.99-6.7,6.69Z"/>
        </g>
        <g>
          <g>
            <path class="cls-1" d="m8.28,84.07l5.08,1.9-5.35,14.33c-.73,1.95.17,3.53,1.56,4.05,1.17.44,2.66.16,3.64-1.26l6.46-9.61c2.74-4.02,6.92-4.74,10.22-3.51,4.13,1.54,7.11,6.02,5.01,11.62l-5.71,15.29-5.08-1.9,5.63-15.07c.76-2.04-.32-3.78-1.8-4.33-1.22-.46-2.87-.13-3.88,1.37l-6.48,9.66c-2.67,3.95-6.77,4.6-9.98,3.4-4-1.49-6.83-5.82-4.79-11.29l5.47-14.64Z"/>
            <path class="cls-1" d="m53.84,70.35l-7.84-1.92-8.16,11.21,4.26,6.83-3.6,4.95-17.43-28.85,3.6-4.95,32.85,7.66-3.68,5.06Zm-18.88,4.67l5.73-7.87-12.57-3.06,6.84,10.94Z"/>
            <path class="cls-1" d="m56.7,26.11l3.5,4.14-8.25,6.97,16.55,19.58-4.21,3.56-16.55-19.58-8.25,6.97-3.5-4.14,20.72-17.51Z"/>
            <path class="cls-1" d="m97.87,39.29l-6.07-5.31-12.41,6.19.64,8.03-5.48,2.73-2.16-33.64,5.48-2.73,25.61,21.95-5.6,2.79Zm-18.91-4.56l8.71-4.35-9.74-8.51,1.02,12.86Z"/>
            <path class="cls-1" d="m123.78,1.09l1.02,5.33-15.03,2.88c-2.05.39-2.93,1.98-2.65,3.44.24,1.23,1.25,2.36,2.97,2.45l11.57.52c4.86.25,7.65,3.44,8.31,6.91.83,4.33-1.45,9.2-7.32,10.33l-16.03,3.07-1.02-5.33,15.8-3.03c2.14-.41,3.06-2.24,2.77-3.79-.25-1.28-1.38-2.52-3.19-2.6l-11.62-.51c-4.76-.22-7.45-3.39-8.09-6.76-.8-4.19,1.42-8.87,7.16-9.96l15.35-2.94Z"/>
            <path class="cls-1" d="m161.01,1.99l5.5.5-2.84,30.94-5.5-.5,1.21-13.25-16.16-1.48-1.21,13.25-5.54-.51,2.84-30.94,5.54.51-1.13,12.33,16.16,1.48,1.13-12.33Z"/>
            <path class="cls-1" d="m196.04,25.55c3.91,1.59,4.91,4.3,3.39,8.04l-4.68,11.51-5.15-2.1,4.26-10.48c.52-1.29.11-2.11-1.18-2.63l-12.07-4.91-5.01,12.32-5.15-2.1,11.71-28.77,5.15,2.1-4.7,11.55,7.86,3.2,10.88-9.04,5.67,2.31-11.01,8.98.04.02Z"/>
            <path class="cls-1" d="m200.44,48.71l18.98-24.58,18.53,14.31-3.32,4.29-14.13-10.91-4.33,5.61,12.77,9.86-3.2,4.15-12.77-9.86-4.82,6.24,14.13,10.91-3.31,4.29-18.53-14.31Z"/>
            <path class="cls-1" d="m261.8,67.37l3.26,4.51-25.16,18.22-3.26-4.51,8.73-27.79-18.93,13.7-3.26-4.51,25.16-18.22,3.81,5.26-8.11,26.19,17.76-12.86Z"/>
            <path class="cls-1" d="m280.29,109.07l-5.1,1.83-3.65-10.16-24.13,8.67-1.87-5.19,24.13-8.67-3.65-10.16,5.1-1.83,9.17,25.52Z"/>
          </g>
          <g>
            <path class="cls-1" d="m37.39,198.04l-4.98,2.05-5.79-14.05c-.79-1.92-2.51-2.45-3.87-1.89-1.15.47-2.04,1.69-1.79,3.38l1.79,11.36c.73,4.78-1.83,8.13-5.07,9.46-4.05,1.67-9.24.42-11.5-5.07l-6.18-14.99,4.98-2.05,6.09,14.78c.82,2,2.79,2.54,4.24,1.94,1.19-.49,2.18-1.84,1.9-3.62l-1.81-11.41c-.73-4.68,1.82-7.92,4.97-9.22,3.92-1.61,8.91-.38,11.12,4.98l5.91,14.35Z"/>
            <path class="cls-1" d="m29.46,240.07l4.04-6.92-8.37-10.93-7.71,2.13-3.69-4.83,32.39-8.43,3.69,4.83-16.58,29.09-3.78-4.94Zm.89-19.29l5.88,7.68,6.47-11.09-12.35,3.41Z"/>
            <path class="cls-1" d="m76.54,240.88l-3.42,4.16-8.29-6.82-16.18,19.66-4.23-3.48,16.18-19.66-8.29-6.82,3.42-4.16,20.8,17.12Z"/>
            <path class="cls-1" d="m83.33,278.56l.55-8-12.36-6.09-5.96,5.33-5.45-2.69,25.29-21.95,5.45,2.69-1.94,33.45-5.58-2.75Zm-7.77-17.69l8.68,4.27.87-12.82-9.55,8.55Z"/>
            <path class="cls-1" d="m127.69,258.25l-1.02,5.29-14.92-2.89c-2.03-.39-3.43.74-3.71,2.19-.24,1.22.29,2.64,1.84,3.36l10.48,4.75c4.39,2.02,5.78,6,5.11,9.43-.83,4.3-4.73,7.95-10.56,6.82l-15.92-3.08,1.02-5.29,15.69,3.04c2.12.41,3.65-.93,3.95-2.47.25-1.27-.34-2.83-1.98-3.57l-10.52-4.76c-4.31-1.96-5.62-5.87-4.97-9.22.81-4.16,4.58-7.65,10.27-6.55l15.24,2.95Z"/>
            <path class="cls-1" d="m155.25,257.28l5.47-.41,2.33,30.77-5.46.41-1-13.18-16.07,1.22,1,13.18-5.51.42-2.33-30.77,5.51-.42.93,12.26,16.07-1.22-.93-12.26Z"/>
            <path class="cls-1" d="m189.64,259.98c3.92-1.48,6.48-.18,7.9,3.56l4.37,11.55-5.17,1.95-3.98-10.51c-.49-1.29-1.35-1.61-2.64-1.12l-12.11,4.58,4.68,12.37-5.17,1.95-10.91-28.87,5.17-1.95,4.38,11.59,7.88-2.98,1.82-13.93,5.69-2.15-1.95,13.98.04-.02Z"/>
            <path class="cls-1" d="m213.99,268.25l-18.01-25.05,18.88-13.58,3.15,4.37-14.39,10.35,4.11,5.72,13.01-9.36,3.04,4.22-13.01,9.36,4.57,6.36,14.39-10.35,3.15,4.37-18.88,13.58Z"/>
            <path class="cls-1" d="m232.84,208.59l3.45-4.32,24.11,19.26-3.45,4.32-28.92-1,18.14,14.49-3.45,4.32-24.11-19.27,4.03-5.04,27.23.83-17.02-13.6Z"/>
            <path class="cls-1" d="m248.52,176.4l4.96,2.1-4.18,9.88,23.46,9.93-2.14,5.05-23.46-9.93-4.18,9.88-4.96-2.1,10.5-24.81Z"/>
          </g>
        </g>
      </g>
    </g>
  </g>
</svg>