<?xml version="1.0" encoding="UTF-8"?>
<svg id="Layer_2" data-name="Layer 2" xmlns="http://www.w3.org/2000/svg" viewBox="0 0 884.7 128.25">
  <defs>
    <style>
      .cls-1 {
        fill: #232323;
      }

      .cls-1, .cls-2 {
        stroke-width: 0px;
      }

      .cls-2 {
        fill: #a22135;
      }
    </style>
  </defs>
  <g id="Layer_1-2" data-name="Layer 1">
    <g>
      <g>
        <path class="cls-2" d="m87.82,71.25l-4.33-4.33-7.03,7.03-1.07-4.06-5.92,1.56,2.54,9.64-4.07-1.1-1.61,5.91,9.65,2.62-2.98,2.97,4.32,4.34,7.07-7.03,1.08,4.05,5.92-1.58-2.56-9.63,4.06,1.09,1.59-5.92-9.63-2.59,2.98-2.98Zm-5.05,8.76l5.09,1.37-5.08,1.35,1.36,5.09-3.71-3.73-3.74,3.72,1.38-5.09-5.07-1.38,5.06-1.33-1.33-5.05,3.69,3.69,3.72-3.72-1.36,5.07Z"/>
        <path class="cls-2" d="m0,0v72.77l.04.72c1.04,30.71,25.94,54.77,56.68,54.77s55.65-24.06,56.68-54.77l.04-1.1V0H0Zm104.65,72.27l-.03.91c-.42,12.45-5.59,24.09-14.55,32.78-8.98,8.7-20.83,13.5-33.34,13.5-8.26,0-16.23-2.09-23.28-6.02v-24.79h26.76v-26.76h18.27v.04h8.5v-26.76h17.68v37.11Zm-17.68-45.61h-8.5v26.73h-26.76v26.76h-26.76v27.25c-.53-.47-1.05-.95-1.56-1.45-8.97-8.69-14.14-20.33-14.56-32.78l-.03-.98V8.79h95.86v17.88h-17.68Z"/>
        <polygon class="cls-2" points="16.45 44.9 16.45 53.4 34.71 53.4 34.71 71.66 43.21 71.66 43.21 53.4 43.21 44.9 34.71 44.9 16.45 44.9"/>
        <path class="cls-2" d="m43.21,32.57c0-3.26-2.64-5.9-5.9-5.9h-20.86v8.5h53.53v-8.5h-20.86c-3.26,0-5.9,2.64-5.9,5.9Z"/>
      </g>
      <g>
        <path class="cls-1" d="m213.78,13.13v12.94h-36.51c-4.98,0-7.74,3.32-7.74,6.86,0,2.99,1.88,6.08,5.86,7.08l26.88,6.41c11.29,2.77,16.37,11.51,16.37,19.92,0,10.51-7.52,20.91-21.79,20.91h-38.94v-12.94h38.39c5.2,0,8.18-3.87,8.18-7.63,0-3.09-2.1-6.53-6.31-7.52l-26.99-6.41c-11.06-2.66-15.93-11.29-15.93-19.48,0-10.17,7.3-20.13,21.24-20.13h37.28Z"/>
        <path class="cls-1" d="m284.79,87.25l-7.3-17.81h-33.08l-7.19,17.81h-14.6l31.2-74.12h14.6l31.31,74.12h-14.94Zm-35.51-29.87h23.23l-11.73-28.54-11.5,28.54Z"/>
        <path class="cls-1" d="m358.14,13.13v12.94h-25.78v61.18h-13.16V26.07h-25.78v-12.94h64.72Z"/>
        <path class="cls-1" d="m414.11,87.25l-7.3-17.81h-33.08l-7.19,17.81h-14.6l31.2-74.12h14.6l31.31,74.12h-14.94Zm-35.51-29.87h23.23l-11.73-28.54-11.5,28.54Z"/>
        <path class="cls-1" d="m492.66,13.13v12.94h-36.51c-4.98,0-7.74,3.32-7.74,6.86,0,2.99,1.88,6.08,5.86,7.08l26.88,6.41c11.29,2.77,16.38,11.51,16.38,19.92,0,10.51-7.53,20.91-21.8,20.91h-38.94v-12.94h38.39c5.2,0,8.19-3.87,8.19-7.63,0-3.09-2.1-6.53-6.31-7.52l-26.99-6.41c-11.06-2.66-15.93-11.29-15.93-19.48,0-10.17,7.3-20.13,21.24-20.13h37.28Z"/>
        <path class="cls-1" d="m561.46,13.13h13.17v74.12h-13.17v-31.75h-38.72v31.75h-13.27V13.13h13.27v29.54h38.72V13.13Z"/>
        <path class="cls-1" d="m639.89,42.88c10.07,0,14.71,5.09,14.71,14.71v29.65h-13.27v-26.99c0-3.32-1.66-4.76-4.98-4.76h-31.09v31.75h-13.27V13.13h13.27v29.76h20.25l15.93-29.76h14.61l-16.26,29.76h.11Z"/>
        <path class="cls-1" d="m670.86,87.25V13.13h55.87v12.94h-42.59v16.93h38.5v12.5h-38.5v18.8h42.59v12.94h-55.87Z"/>
        <path class="cls-1" d="m795.76,13.13h13.28v74.12h-13.28l-41.49-55.76v55.76h-13.27V13.13h15.49l39.27,52.33V13.13Z"/>
        <path class="cls-1" d="m884.7,13.13v12.94h-25.78v61.18h-13.17V26.07h-25.78v-12.94h64.72Z"/>
      </g>
    </g>
  </g>
</svg>